<?xml version="1.0" encoding="UTF-8" standalone="no"?>
<!DOCTYPE svg PUBLIC "-//W3C//DTD SVG 20010904//EN"
              "http://www.w3.org/TR/2001/REC-SVG-20010904/DTD/svg10.dtd">

<svg xmlns="http://www.w3.org/2000/svg"
     width="1.58667in" height="2.37333in"
     viewBox="0 0 476 712">
  <path id="bg_logo"
        fill="#9c51e0" stroke="none" stroke-width="0"
        d="M 0.00,0.00
           C 0.00,0.00 130.00,0.00 130.00,0.00
             130.00,0.00 168.00,0.00 168.00,0.00
             168.00,0.00 186.00,1.00 186.00,1.00
             186.00,1.00 152.00,17.75 152.00,17.75
             152.00,17.75 92.00,47.75 92.00,47.75
             92.00,47.75 72.00,57.75 72.00,57.75
             72.00,57.75 64.02,63.21 64.02,63.21
             64.02,63.21 63.00,71.00 63.00,71.00
             63.00,71.00 63.00,649.00 63.00,649.00
             63.00,649.00 413.00,649.00 413.00,649.00
             413.00,649.00 413.00,359.00 413.00,359.00
             413.00,359.00 298.00,397.33 298.00,397.33
             298.00,397.33 262.00,409.33 262.00,409.33
             262.00,409.33 240.00,416.00 240.00,416.00
             240.00,416.00 240.00,471.00 240.00,471.00
             240.00,471.00 313.00,452.63 313.00,452.63
             313.00,452.63 358.00,442.00 358.00,442.00
             358.00,442.00 358.00,594.00 358.00,594.00
             358.00,594.00 118.00,594.00 118.00,594.00
             118.00,594.00 118.00,294.00 118.00,294.00
             118.00,294.00 320.00,334.40 320.00,334.40
             320.00,334.40 382.00,346.80 382.00,346.80
             382.00,346.80 417.00,353.00 417.00,353.00
             417.00,353.00 431.59,441.00 431.59,441.00
             431.59,441.00 458.41,602.00 458.41,602.00
             458.41,602.00 470.25,673.00 470.25,673.00
             470.25,673.00 476.00,712.00 476.00,712.00
             476.00,712.00 0.00,712.00 0.00,712.00
             0.00,712.00 0.00,0.00 0.00,0.00 Z" />
</svg>
